<svg version="1.1"
	xmlns="http://www.w3.org/2000/svg"
	xmlns:xlink="http://www.w3.org/1999/xlink" width="512" height="512" viewBox="0 0 512 512">
	<defs/>
	<g>
		<path fill="none" stroke="rgb(220,220,220)" paint-order="fill stroke markers" d=" M 102.4 51.2 L 409.6 51.2 L 409.6 51.2 A 51.2 51.2 0 0 1 460.8 102.4 L 460.8 409.6 L 460.8 409.6 A 51.2 51.2 0 0 1 409.6 460.8 L 102.4 460.8 L 102.4 460.8 A 51.2 51.2 0 0 1 51.2 409.6 L 51.2 102.4 L 51.2 102.4 A 51.2 51.2 0 0 1 102.4 51.2 Z" stroke-opacity="1" stroke-linecap="round" stroke-miterlimit="10" stroke-width="70" stroke-dasharray=""/>
		<path fill="none" stroke="rgb(31,41,55)" paint-order="fill stroke markers" d=" M 102.9 51.7 L 410.1 51.7 L 410.1 51.7 A 51.2 51.2 0 0 1 461.3 102.9 L 461.3 410.1 L 461.3 410.1 A 51.2 51.2 0 0 1 410.1 461.3 L 102.9 461.3 L 102.9 461.3 A 51.2 51.2 0 0 1 51.7 410.1 L 51.7 102.9 L 51.7 102.9 A 51.2 51.2 0 0 1 102.9 51.7 Z" stroke-opacity="1" stroke-linecap="round" stroke-miterlimit="10" stroke-width="35" stroke-dasharray=""/>
		<path fill="none" stroke="rgb(220,220,220)" paint-order="fill stroke markers" d=" M 74.66666666666669 307.2 C 74.66666666666669 281.1111203904 155.85236536960002 259.96190476190475 256 259.96190476190475 C 356.1476346304 259.96190476190475 437.3333333333333 281.1111203904 437.3333333333333 307.2 C 437.3333333333333 333.2888796096 356.1476346304 354.43809523809523 256 354.43809523809523 C 155.85236536960002 354.43809523809523 74.66666666666669 333.2888796096 74.66666666666669 307.2 Z" stroke-opacity="1" stroke-linecap="round" stroke-miterlimit="10" stroke-width="70" stroke-dasharray=""/>
		<path fill="none" stroke="rgb(31,41,55)" paint-order="fill stroke markers" d=" M 85.33333333333334 307.2 C 85.33333333333334 287.0021577216 161.7434027008 270.62857142857143 256 270.62857142857143 C 350.2565972992 270.62857142857143 426.66666666666663 287.0021577216 426.66666666666663 307.2 C 426.66666666666663 327.3978422784 350.2565972992 343.7714285714286 256 343.7714285714286 C 161.7434027008 343.7714285714286 85.33333333333334 327.3978422784 85.33333333333334 307.2 Z" stroke-opacity="1" stroke-linecap="round" stroke-miterlimit="10" stroke-width="35" stroke-dasharray=""/>
		<path fill="none" stroke="rgb(220,220,220)" paint-order="fill stroke markers" d=" M 221.86666666666667 324.26666666666665 C 221.86666666666667 305.41534720577556 237.1486805391089 290.1333333333333 256 290.1333333333333 C 274.8513194608911 290.1333333333333 290.1333333333333 305.41534720577556 290.1333333333333 324.26666666666665" stroke-opacity="1" stroke-linecap="round" stroke-miterlimit="10" stroke-width="46.666666666666664" stroke-dasharray=""/>
		<path fill="none" stroke="rgb(220,220,220)" paint-order="fill stroke markers" d=" M 221.86666666666667 341.3333333333333 L 290.1333333333333 341.3333333333333 L 290.1333333333333 341.3333333333333 A 8.533333333333333 8.533333333333333 0 0 1 298.6666666666667 349.8666666666667 L 298.6666666666667 418.13333333333327 L 298.6666666666667 418.13333333333327 A 8.533333333333333 8.533333333333333 0 0 1 290.1333333333333 426.66666666666663 L 221.86666666666667 426.66666666666663 L 221.86666666666667 426.66666666666663 A 8.533333333333333 8.533333333333333 0 0 1 213.33333333333334 418.13333333333327 L 213.33333333333334 349.8666666666667 L 213.33333333333334 349.8666666666667 A 8.533333333333333 8.533333333333333 0 0 1 221.86666666666667 341.3333333333333 Z" stroke-opacity="1" stroke-linecap="round" stroke-miterlimit="10" stroke-width="70" stroke-dasharray=""/>
		<path fill="rgb(31,41,55)" stroke="rgb(31,41,55)" paint-order="fill stroke markers" d=" M 222.36666666666667 341.8333333333333 L 290.6333333333333 341.8333333333333 L 290.6333333333333 341.8333333333333 A 8.533333333333333 8.533333333333333 0 0 1 299.1666666666667 350.3666666666667 L 299.1666666666667 418.63333333333327 L 299.1666666666667 418.63333333333327 A 8.533333333333333 8.533333333333333 0 0 1 290.6333333333333 427.16666666666663 L 222.36666666666667 427.16666666666663 L 222.36666666666667 427.16666666666663 A 8.533333333333333 8.533333333333333 0 0 1 213.83333333333334 418.63333333333327 L 213.83333333333334 350.3666666666667 L 213.83333333333334 350.3666666666667 A 8.533333333333333 8.533333333333333 0 0 1 222.36666666666667 341.8333333333333 Z" fill-opacity="1" stroke-opacity="1" stroke-linecap="round" stroke-miterlimit="10" stroke-width="35" stroke-dasharray=""/>
		<path fill="none" stroke="rgb(31,41,55)" paint-order="fill stroke markers" d=" M 221.86666666666667 324.26666666666665 C 221.86666666666667 305.41534720577556 237.1486805391089 290.1333333333333 256 290.1333333333333 C 274.8513194608911 290.1333333333333 290.1333333333333 305.41534720577556 290.1333333333333 324.26666666666665" stroke-opacity="1" stroke-linecap="round" stroke-miterlimit="10" stroke-width="17.5" stroke-dasharray=""/>
		<path fill="rgb(220,220,220)" stroke="none" paint-order="stroke fill markers" d=" M 256 369.77777777777777 Z" fill-opacity="1"/>
		<path fill="rgb(220,220,220)" stroke="none" paint-order="stroke fill markers" d=" M 250.88 369.77777777777777 L 261.12 369.77777777777777 L 268.8 403.9111111111111 L 243.2 403.9111111111111 Z" fill-opacity="1"/>
	</g>
</svg>
