<?xml version="1.0" encoding="UTF-8" standalone="no"?>
<!-- Created with Inkscape (http://www.inkscape.org/) -->

<svg
   width="512"
   height="512"
   viewBox="0 0 512 512"
   version="1.1"
   id="svg1"
   xml:space="preserve"
   inkscape:version="1.3.2 (091e20ef0f, 2023-11-25, custom)"
   sodipodi:docname="logo.svg"
   xmlns:inkscape="http://www.inkscape.org/namespaces/inkscape"
   xmlns:sodipodi="http://sodipodi.sourceforge.net/DTD/sodipodi-0.dtd"
   xmlns="http://www.w3.org/2000/svg"
   xmlns:svg="http://www.w3.org/2000/svg"><sodipodi:namedview
     id="namedview1"
     pagecolor="#505050"
     bordercolor="#eeeeee"
     borderopacity="1"
     inkscape:showpageshadow="0"
     inkscape:pageopacity="0"
     inkscape:pagecheckerboard="0"
     inkscape:deskcolor="#d1d1d1"
     inkscape:document-units="px"
     inkscape:zoom="1.1697645"
     inkscape:cx="227.3962"
     inkscape:cy="279.11601"
     inkscape:window-width="1920"
     inkscape:window-height="1024"
     inkscape:window-x="0"
     inkscape:window-y="56"
     inkscape:window-maximized="1"
     inkscape:current-layer="g1" /><defs
     id="defs1" /><g
     inkscape:groupmode="layer"
     id="layer2"
     inkscape:label="Layer 1"
     style="display:inline"><g
       id="g1"
       style="display:inline"><path
         style="display:inline;fill:#ffffff;fill-opacity:1;stroke:#1f2937;stroke-width:5.13415;stroke-dasharray:none;stroke-opacity:1"
         d="m 252.58728,486.93112 -125.78674,-0.33547 -5.26512,-1.41818 C 101.31473,479.73091 88.400793,472.47312 75.22268,459.14913 67.415931,451.25599 61.879309,443.53603 57.178028,433.98867 53.048485,425.6024 51.486802,421.23596 49.682299,413.03076 48.561053,407.93237 48.504702,401.31905 48.504702,274.82993 V 141.98372 l 1.721346,-6.09681 C 60.121372,100.83885 83.675934,77.408806 118.77842,67.696949 l 7.38034,-2.041929 42.14165,-0.20728 42.14162,-0.207265 -3.53163,10.133782 c -1.94239,5.573569 -5.31114,15.234729 -7.48609,21.469209 l -3.95448,11.335444 -27.91696,0.34719 c -24.61325,0.3061 -28.56251,0.49565 -33.37199,1.60171 -10.4532,2.404 -18.10855,6.37557 -25.5256,13.24263 -7.66305,7.09481 -12.928038,16.2426 -16.373248,28.44811 -1.363848,4.8318 -1.394242,5.88942 -1.591394,55.38848 l -0.200989,50.4626 -3.985592,1.44315 c -13.041801,4.72233 -23.367163,12.62443 -29.571559,22.63142 -4.364049,7.03873 -5.688474,11.58604 -6.034901,20.72039 -0.277805,7.32496 -0.190371,8.03914 1.631213,13.3239 2.520652,7.31291 5.217626,11.71087 10.91855,17.80485 5.653291,6.04307 12.802305,10.77772 20.991908,13.90255 l 6.007228,2.29211 0.248172,24.1308 c 0.229241,22.28917 0.353692,24.51203 1.630761,29.12618 4.814424,17.39503 16.951211,31.34143 32.073891,36.85617 7.4832,2.72886 12.72957,3.39317 26.7978,3.39317 h 13.05271 l 2.02356,3.53681 c 4.62627,8.0859 10.8921,13.97527 18.8113,17.68111 8.26543,3.86786 6.56898,3.78774 80.45646,3.79994 75.40117,0.0129 72.48382,0.17157 82.09382,-4.4777 6.33132,-3.06307 13.01381,-9.36243 16.93676,-15.96572 l 2.63889,-4.44192 15.20824,-0.3086 c 15.8187,-0.32101 18.36186,-0.68766 26.43921,-3.81178 4.83725,-1.87094 11.09005,-5.96568 15.87092,-10.39331 6.92269,-6.41124 12.41972,-16.16324 15.249,-27.05255 1.57285,-6.05358 1.61037,-6.72965 1.61307,-29.0707 l 0.003,-22.87298 5.24829,-1.92532 c 14.96519,-5.48988 28.89099,-19.55824 33.26784,-33.60838 4.06096,-13.03614 0.63904,-26.76759 -9.52288,-38.21328 -6.29511,-7.09038 -17.27177,-14.57991 -25.6047,-17.47042 l -3.34448,-1.16012 -0.18558,-51.68103 -0.18536,-51.68103 -1.83995,-5.45505 c -3.60215,-10.67959 -7.94889,-17.74053 -15.43248,-25.06894 -10.49017,-10.27262 -20.01375,-13.98004 -37.365,-14.54579 l -10.356,-0.33766 1.69212,-3.60881 c 1.68577,-3.59531 1.69286,-3.67696 1.8896,-21.799264 l 0.19747,-18.190431 14.56322,0.266873 14.56321,0.266886 7.70122,2.400805 c 18.95882,5.910296 34.3293,16.111967 46.04109,30.558347 7.42288,9.156014 11.486,16.345764 15.77662,27.916954 5.4508,14.7 4.92628,-1.22124 4.92628,149.5322 0,151.7202 0.53784,136.34944 -5.27517,150.75695 -5.73611,14.21692 -11.06251,22.299 -21.62245,32.80908 -12.53852,12.47936 -25.73542,20.16987 -42.73433,24.90352 -8.72547,2.42976 -13.72246,2.98677 -25.34988,2.82577 -5.64756,-0.0782 -66.87234,-0.29315 -136.05506,-0.47766 z M 395.22047,66.098815 c -2.73554,-0.120267 -7.21189,-0.120267 -9.94742,0 -2.73554,0.120268 -0.49737,0.218728 4.97371,0.218728 5.47108,0 7.70925,-0.09845 4.97371,-0.218728 z M 196.54055,439.05647 c -3.35411,-1.67141 -5.32278,-3.73958 -7.57309,-7.95576 -1.13829,-2.1327 -1.19886,-4.54847 -1.19886,-47.8118 V 337.7233 l 1.51641,-2.88796 c 3.52635,-6.71588 5.77071,-7.89853 15.81136,-8.33166 l 7.70122,-0.33222 0.38343,-8.66388 c 0.40022,-9.04338 1.44684,-14.19747 4.23516,-20.85598 3.62839,-8.66464 11.48042,-18.02611 19.5045,-23.254 5.27374,-3.43598 16.23364,-7.0698 23.60543,-7.82652 24.34337,-2.49884 46.64731,10.9319 55.18796,33.23249 2.47875,6.47231 3.1783,10.40179 3.50109,19.66665 l 0.26833,7.70124 7.70005,0.33178 c 5.25632,0.22649 8.08364,0.62365 8.90867,1.25145 3.22763,2.45599 4.99326,4.4578 6.44937,7.31207 l 1.59136,3.11938 -0.0629,44.68347 c -0.0414,29.35694 -0.29719,45.56707 -0.74608,47.2595 -0.89629,3.37921 -6.31827,8.7255 -9.94829,9.8094 -2.01402,0.60136 -18.18229,0.78873 -68.06196,0.78873 h -65.42038 z m 85.24722,-24.69527 c 0,-0.90627 -2.2548,-9.73857 -4.22348,-16.54384 -0.85384,-2.95151 -1.55244,-5.93744 -1.55244,-6.63538 0,-0.69794 1.27348,-2.50665 2.82995,-4.01937 3.88201,-3.77288 5.02544,-6.26823 5.38048,-11.74202 0.27698,-4.27015 0.12943,-5.01047 -1.7657,-8.86004 -1.5044,-3.05585 -2.88289,-4.79224 -5.05855,-6.37184 -8.23953,-5.98221 -20.02355,-4.68958 -25.45739,2.79248 -6.13439,8.44667 -5.21563,18.25999 2.31287,24.70412 l 2.63792,2.25796 -3.28056,12.07529 c -1.80432,6.6414 -3.27815,12.29187 -3.27518,12.55659 0.003,0.26473 7.08091,0.48133 15.72874,0.48133 10.86119,0 15.72334,-0.21501 15.72334,-0.69528 z m 13.74556,-88.2584 c 1.35918,-0.52157 1.37432,-9.23712 0.0259,-14.95731 -5.37444,-22.80096 -35.31025,-30.70851 -51.21574,-13.52869 -6.12789,6.61885 -8.76311,13.78465 -8.76311,23.82898 v 5.04656 h 29.46889 c 16.20788,0 29.92569,-0.17529 30.48403,-0.38954 z m -144.66645,14.51421 c -22.26791,-3.83927 -44.02069,-10.45275 -56.200996,-17.08674 -9.135134,-4.97546 -14.033668,-9.45363 -16.014437,-14.64023 -0.979481,-2.56472 -1.025983,-3.35101 -0.336158,-5.68295 1.100081,-3.71875 5.64251,-7.93006 11.737341,-10.88176 5.834272,-2.8255 18.39184,-7.0777 25.01135,-8.46923 2.5724,-0.54076 7.99825,-1.69116 12.05744,-2.55645 13.66714,-2.91335 37.93362,-6.03229 60.32629,-7.75365 17.26255,-1.327 15.84887,-1.55304 13.04684,2.08613 -2.57914,3.34972 -8.98818,16.28755 -9.61097,19.40155 -0.21605,1.08019 -0.62558,2.10785 -0.91009,2.28369 -0.2845,0.17584 -4.36254,0.60867 -9.06232,0.96185 -18.42905,1.38494 -42.81015,5.18439 -49.62139,7.7328 -1.97432,0.73869 -4.34035,1.98878 -5.25788,2.77801 l -1.6682,1.43493 1.9958,1.42114 c 2.93064,2.08679 8.26509,3.75772 18.73146,5.86729 7.69283,1.55053 22.65413,3.84479 25.07267,3.84479 0.34084,0 -0.0786,1.37803 -0.93205,3.06226 -2.15304,4.24882 -4.05589,10.27594 -4.58743,14.53041 -0.5356,4.28675 0.61509,4.14759 -13.77727,1.66616 z m 216.38922,-0.48266 c -0.2369,-3.81028 -2.59168,-11.72436 -4.58421,-15.40688 l -1.82306,-3.36929 h 1.79976 c 1.88968,0 16.65659,-2.10982 22.54982,-3.22181 10.0418,-1.89479 22.20859,-5.85959 23.27467,-7.58454 1.49629,-2.42107 -10.05778,-6.37801 -24.67813,-8.45155 -9.52761,-1.35127 -27.07118,-3.20698 -34.12891,-3.61007 l -7.31537,-0.41782 -1.14273,-3.27824 c -1.89778,-5.44426 -6.61532,-14.61739 -9.39373,-18.26585 -1.43906,-1.88967 -2.52604,-3.49713 -2.41555,-3.5721 0.11051,-0.075 4.53285,0.0957 9.82745,0.37927 35.64878,1.90936 74.11327,7.81361 91.7072,14.07694 6.88612,2.45142 15.58538,6.71681 17.96883,8.81039 3.22744,2.83494 4.87976,6.02422 4.87976,9.41878 0,5.41398 -3.99628,10.15258 -13.15626,15.60003 -16.07875,9.56207 -34.3352,14.93762 -71.26534,20.98384 -1.86876,0.30595 -1.96086,0.21443 -2.1042,-2.0911 z M 171.6988,256.42904 c 1.17938,-3.29249 4.21568,-11.76226 6.74735,-18.82172 2.53166,-7.05947 7.03175,-19.7916 10.00016,-28.29364 7.64724,-21.90289 6.54664,-19.89236 11.33506,-20.70655 2.2173,-0.37702 10.38497,-1.55609 18.15038,-2.62015 7.76541,-1.06407 24.37118,-3.36769 36.90173,-5.11914 12.53054,-1.75147 26.82594,-3.66444 31.76757,-4.25105 13.23319,-1.57091 12.98328,-1.81501 -2.88796,-2.82069 -6.53001,-0.41378 -19.77072,-1.31513 -29.4238,-2.00299 -9.65309,-0.68787 -17.65118,-1.25066 -17.77354,-1.25066 -0.12232,0 0.38561,-1.46315 1.12878,-3.25144 l 1.35125,-3.25145 -1.60058,-1.60057 c -1.15268,-1.15268 -2.31813,-1.61048 -4.16476,-1.63597 -3.58173,-0.0494 -5.10187,1.13407 -6.71896,5.23103 -0.76974,1.95016 -1.57646,3.75327 -1.79272,4.00692 -0.57225,0.67118 -21.73491,4.05791 -22.23456,3.55828 -0.23197,-0.23199 0.50542,-2.96403 1.63865,-6.07124 1.13322,-3.10719 4.03292,-11.28097 6.44375,-18.16395 2.41085,-6.88297 6.73669,-19.01241 9.61301,-26.9543 8.10704,-22.38467 10.62614,-29.436944 15.70312,-43.961184 10.65558,-30.483634 11.58315,-32.725898 14.65283,-35.421103 2.73866,-2.404581 1.8945,-2.155002 37.6699,-11.137287 56.18339,-14.106203 55.02837,-13.878674 58.79472,-11.582031 1.09898,0.670135 2.61516,2.493012 3.36929,4.050837 1.34818,2.784965 1.37114,3.409856 1.37114,37.305931 0,29.571203 -0.14038,34.809493 -0.98713,36.836063 -1.9358,4.633034 -5.11762,6.735454 -10.30703,6.810464 -4.28603,0.062 -7.88807,-2.20278 -9.80647,-6.165654 -1.31032,-2.70676 -1.36129,-3.6816 -1.36129,-26.033997 0,-12.772078 -0.23757,-23.221954 -0.52793,-23.221954 -0.7345,0 -10.37223,10.094734 -28.55482,29.908821 -1.65314,1.80147 -3.0057,3.74795 -3.0057,4.32553 0,0.57757 5.74,16.431414 12.75555,35.230744 15.51349,41.5709 20.05293,53.85462 27.57288,74.61207 11.47842,31.6841 23.10849,63.57336 23.92313,65.59641 0.45652,1.13368 0.69866,2.18081 0.53814,2.32694 -0.16055,0.14615 -9.24458,-0.55323 -20.18675,-1.55414 -10.94217,-1.00092 -21.12913,-1.83145 -22.63772,-1.84563 -2.30547,-0.0217 -3.46027,-0.57235 -7.24141,-3.45312 -8.71701,-6.64134 -19.73405,-11.52105 -31.36067,-13.89041 -11.26932,-2.29653 -27.29954,-1.48006 -37.91353,1.93108 -6.47617,2.08133 -17.86092,7.88436 -22.3951,11.41524 -3.88162,3.02272 -4.36986,3.21889 -8.98477,3.61023 -2.68404,0.2276 -8.77883,0.81637 -13.54397,1.30838 -4.76513,0.49202 -11.98503,1.21204 -16.04423,1.60005 -4.05919,0.38802 -8.44615,0.8625 -9.74882,1.05441 l -2.36849,0.3489 z m 47.72352,-25.48411 c 1.82321,-5.66092 5.18351,-9.60754 9.49648,-11.15352 1.72252,-0.61745 3.76462,-1.1212 4.53797,-1.11945 2.56506,0.006 2.20485,-1.20903 -0.58092,-1.95916 -7.7908,-2.09783 -12.82733,-7.59816 -14.33978,-15.66029 -0.55259,-2.94553 -1.30896,-2.89123 -1.87189,0.13441 -1.5081,8.10579 -6.9234,13.70174 -15.28423,15.79407 -2.16679,0.54224 -1.6959,1.68609 0.70589,1.71474 0.94984,0.0116 3.31507,0.80551 5.25606,1.76486 4.34623,2.14815 7.34883,5.94878 8.78735,11.12288 0.57766,2.07771 1.23488,3.77766 1.46051,3.77766 0.22563,0 1.05028,-1.98729 1.83256,-4.4162 z m 22.0869,-83.53784 c 2.80144,-0.77801 2.96134,-1.03312 5.99586,-9.56621 2.17282,-6.10998 2.24959,-6.58718 1.29424,-8.04523 -1.28007,-1.95363 -4.8166,-2.69786 -7.5129,-1.58101 -2.19168,0.90782 -2.69946,1.85467 -5.9166,11.03261 -1.67014,4.76462 -2.01946,6.46148 -1.47113,7.14608 1.38225,1.7258 3.8588,2.05569 7.61053,1.01376 z m 50.20643,-6.86735 c 1.13451,-4.54556 5.2444,-8.49616 8.84388,-8.50105 1.13985,-9e-4 1.76486,-0.3433 1.76486,-0.96504 0,-0.52946 -0.50539,-0.96901 -1.1231,-0.97675 -0.6177,-0.008 -2.33493,-0.56428 -3.81606,-1.23669 -2.08063,-0.94461 -3.06565,-1.95806 -4.33194,-4.45696 -0.90144,-1.7789 -1.63898,-3.67716 -1.63898,-4.21835 0,-0.54119 -0.28879,-0.98399 -0.64176,-0.98399 -0.35298,0 -0.64177,0.4447 -0.64177,0.98822 0,1.42975 -2.21745,5.55769 -3.71106,6.90843 -0.70432,0.63694 -2.57051,1.64772 -4.14712,2.24619 -1.57661,0.59846 -2.98046,1.32465 -3.11967,1.61376 -0.13922,0.28909 1.33211,1.06226 3.26959,1.71818 3.99999,1.35412 6.03587,3.36888 7.14499,7.0708 0.89918,3.00119 1.53817,3.23716 2.14814,0.79325 z m 6.58699,-7.29953 c -363.070186,-204.00296 -363.070186,-204.00296 0,0 z m -44.9546,-27.91643 5.25314,-1.04274 2.39428,-6.819424 c 1.31686,-3.75068 3.64588,-10.22638 5.17561,-14.39042 3.16605,-8.618267 3.34181,-10.147272 1.37678,-11.977964 -1.67724,-1.562578 -5.99119,-1.771989 -7.96879,-0.386834 -0.86218,0.603903 -2.59513,4.531739 -5.02587,11.391398 -2.04048,5.75834 -4.50699,12.63567 -5.48114,15.28296 -2.42171,6.581084 -2.91132,8.984644 -1.83035,8.985274 0.46925,2.7e-4 3.2171,-0.46873 6.10634,-1.04225 z"
         id="path1"
         sodipodi:nodetypes="scssssscsscccsscssssscsssssscsssscsscsscssssccsssscccssscsscccsssssssssssssssscsscsssssscssscsssscsssssssssscscssscsscsssssssssssssssscsssssssscssssscssscssssssssssssssssscssssssssssssssssssssssssssssssssssscssscsssscsssssssssssscsssssssssssssssscssssssss" /></g></g></svg>
